<svg height="50" width="50" fill="#ffffff" xmlns="http://www.w3.org/2000/svg" id="Lag_1" viewBox="0 0 280 297">
<path class="st0" d="M260.5 201.1c7.4 0 14-1.6 19.5-4.7-20 58.3-75.4 100.3-140.4 100.3-64.2 0-118.9-41.4-139.5-97.6h19.7l9-46.8 8.9 46.8H61L82.2 97.2H58.1l-9.6 57.2-9-57.2H20.6l-9.2 57.2-9.3-57.2H.4C21.3 39.4 75.7 0 139.6 0c64.7 0 119.7 41.1 140 98.8-5.4-3-11.9-4.6-19.1-4.6-19.4 0-34.1 11.8-34.1 29.4v48c.1 17.6 14.7 29.5 34.1 29.5zm-114.5-2L125.8 97.2H94L73.4 199.1h24.9l2.3-15.2h16.2l1.8 15.2H146zm71.3-75.5c0-17.6-14.9-29.4-34.1-29.4-19.4 0-34.3 11.8-34.3 29.4v48c0 17.6 14.9 29.5 34.3 29.5 19.3 0 34.1-11.9 34.1-29.5v-48zm36.5-1.5v51.1c0 3.4 3 5.4 6.2 5.4s6-2 6-5.4v-51.1c0-3.4-2.8-5.4-6-5.4s-6.2 2-6.2 5.4zm-150 43.5h10.4l-4.6-34.4-5.8 34.4zm78.6-48.9c3.2 0 6 2 6 5.4v51.1c0 3.4-2.8 5.4-6 5.4s-6.2-2-6.2-5.4v-51.1c.1-3.4 3-5.4 6.2-5.4z"/></svg>